<svg width="64" height="64" viewBox="0 0 64 64" fill="none" xmlns="http://www.w3.org/2000/svg">
  <defs>
    <linearGradient id="grad-factory" x1="0%" y1="0%" x2="100%" y2="100%">
      <stop offset="0%" style="stop-color:#FF6B00;stop-opacity:1" />
      <stop offset="100%" style="stop-color:#FFD700;stop-opacity:1" />
    </linearGradient>
  </defs>
  
  <!-- Factory building -->
  <rect x="12" y="32" width="40" height="24" rx="2" fill="url(#grad-factory)" opacity="0.3"/>
  <rect x="12" y="32" width="40" height="24" rx="2" stroke="url(#grad-factory)" stroke-width="2" fill="none"/>
  
  <!-- Chimneys -->
  <rect x="18" y="20" width="6" height="12" rx="1" fill="url(#grad-factory)"/>
  <rect x="29" y="16" width="6" height="16" rx="1" fill="url(#grad-factory)"/>
  <rect x="40" y="22" width="6" height="10" rx="1" fill="url(#grad-factory)"/>
  
  <!-- Smoke -->
  <circle cx="21" cy="16" r="2" fill="#FFD700" opacity="0.4">
    <animate attributeName="cy" values="16;10;16" dur="3s" repeatCount="indefinite"/>
    <animate attributeName="opacity" values="0.4;0;0.4" dur="3s" repeatCount="indefinite"/>
  </circle>
  <circle cx="32" cy="12" r="2" fill="#FFD700" opacity="0.4">
    <animate attributeName="cy" values="12;6;12" dur="3s" begin="0.5s" repeatCount="indefinite"/>
    <animate attributeName="opacity" values="0.4;0;0.4" dur="3s" begin="0.5s" repeatCount="indefinite"/>
  </circle>
  <circle cx="43" cy="18" r="2" fill="#FFD700" opacity="0.4">
    <animate attributeName="cy" values="18;12;18" dur="3s" begin="1s" repeatCount="indefinite"/>
    <animate attributeName="opacity" values="0.4;0;0.4" dur="3s" begin="1s" repeatCount="indefinite"/>
  </circle>
  
  <!-- Windows -->
  <rect x="18" y="38" width="6" height="6" rx="1" fill="#FFD700" opacity="0.6"/>
  <rect x="29" y="38" width="6" height="6" rx="1" fill="#FFD700" opacity="0.6"/>
  <rect x="40" y="38" width="6" height="6" rx="1" fill="#FFD700" opacity="0.6"/>
  
  <!-- Door -->
  <rect x="27" y="46" width="10" height="10" rx="1" fill="#FF6B00"/>
</svg>
